<svg xmlns="http://www.w3.org/2000/svg" viewBox="0 0 800 200">
  <defs>
    <filter id="pixelate">
      <feFlood x="0" y="0" height="2" width="2"/>
      <feComposite width="4" height="4"/>
      <feTile result="tile"/>
      <feComposite in="SourceGraphic" in2="tile" operator="in"/>
      <feMorphology operator="dilate" radius="2"/>
    </filter>
  </defs>

  <!-- Game Boy green background -->
  <rect width="800" height="200" fill="#b8c19e"/>

  <!-- Scanline texture -->
  <g opacity="0.04">
    <line x1="0" y1="0" x2="800" y2="0" stroke="#474b3c" stroke-width="1" />
    <line x1="0" y1="4" x2="800" y2="4" stroke="#474b3c" stroke-width="1" />
    <line x1="0" y1="8" x2="800" y2="8" stroke="#474b3c" stroke-width="1" />
    <line x1="0" y1="12" x2="800" y2="12" stroke="#474b3c" stroke-width="1" />
    <line x1="0" y1="16" x2="800" y2="16" stroke="#474b3c" stroke-width="1" />
    <line x1="0" y1="20" x2="800" y2="20" stroke="#474b3c" stroke-width="1" />
    <line x1="0" y1="24" x2="800" y2="24" stroke="#474b3c" stroke-width="1" />
    <line x1="0" y1="28" x2="800" y2="28" stroke="#474b3c" stroke-width="1" />
    <line x1="0" y1="32" x2="800" y2="32" stroke="#474b3c" stroke-width="1" />
    <line x1="0" y1="36" x2="800" y2="36" stroke="#474b3c" stroke-width="1" />
    <line x1="0" y1="40" x2="800" y2="40" stroke="#474b3c" stroke-width="1" />
    <line x1="0" y1="44" x2="800" y2="44" stroke="#474b3c" stroke-width="1" />
    <line x1="0" y1="48" x2="800" y2="48" stroke="#474b3c" stroke-width="1" />
    <line x1="0" y1="52" x2="800" y2="52" stroke="#474b3c" stroke-width="1" />
    <line x1="0" y1="56" x2="800" y2="56" stroke="#474b3c" stroke-width="1" />
    <line x1="0" y1="60" x2="800" y2="60" stroke="#474b3c" stroke-width="1" />
    <line x1="0" y1="64" x2="800" y2="64" stroke="#474b3c" stroke-width="1" />
    <line x1="0" y1="68" x2="800" y2="68" stroke="#474b3c" stroke-width="1" />
    <line x1="0" y1="72" x2="800" y2="72" stroke="#474b3c" stroke-width="1" />
    <line x1="0" y1="76" x2="800" y2="76" stroke="#474b3c" stroke-width="1" />
    <line x1="0" y1="80" x2="800" y2="80" stroke="#474b3c" stroke-width="1" />
    <line x1="0" y1="84" x2="800" y2="84" stroke="#474b3c" stroke-width="1" />
    <line x1="0" y1="88" x2="800" y2="88" stroke="#474b3c" stroke-width="1" />
    <line x1="0" y1="92" x2="800" y2="92" stroke="#474b3c" stroke-width="1" />
    <line x1="0" y1="96" x2="800" y2="96" stroke="#474b3c" stroke-width="1" />
    <line x1="0" y1="100" x2="800" y2="100" stroke="#474b3c" stroke-width="1" />
    <line x1="0" y1="104" x2="800" y2="104" stroke="#474b3c" stroke-width="1" />
    <line x1="0" y1="108" x2="800" y2="108" stroke="#474b3c" stroke-width="1" />
    <line x1="0" y1="112" x2="800" y2="112" stroke="#474b3c" stroke-width="1" />
    <line x1="0" y1="116" x2="800" y2="116" stroke="#474b3c" stroke-width="1" />
    <line x1="0" y1="120" x2="800" y2="120" stroke="#474b3c" stroke-width="1" />
    <line x1="0" y1="124" x2="800" y2="124" stroke="#474b3c" stroke-width="1" />
    <line x1="0" y1="128" x2="800" y2="128" stroke="#474b3c" stroke-width="1" />
    <line x1="0" y1="132" x2="800" y2="132" stroke="#474b3c" stroke-width="1" />
    <line x1="0" y1="136" x2="800" y2="136" stroke="#474b3c" stroke-width="1" />
    <line x1="0" y1="140" x2="800" y2="140" stroke="#474b3c" stroke-width="1" />
    <line x1="0" y1="144" x2="800" y2="144" stroke="#474b3c" stroke-width="1" />
    <line x1="0" y1="148" x2="800" y2="148" stroke="#474b3c" stroke-width="1" />
    <line x1="0" y1="152" x2="800" y2="152" stroke="#474b3c" stroke-width="1" />
    <line x1="0" y1="156" x2="800" y2="156" stroke="#474b3c" stroke-width="1" />
    <line x1="0" y1="160" x2="800" y2="160" stroke="#474b3c" stroke-width="1" />
    <line x1="0" y1="164" x2="800" y2="164" stroke="#474b3c" stroke-width="1" />
    <line x1="0" y1="168" x2="800" y2="168" stroke="#474b3c" stroke-width="1" />
    <line x1="0" y1="172" x2="800" y2="172" stroke="#474b3c" stroke-width="1" />
    <line x1="0" y1="176" x2="800" y2="176" stroke="#474b3c" stroke-width="1" />
    <line x1="0" y1="180" x2="800" y2="180" stroke="#474b3c" stroke-width="1" />
    <line x1="0" y1="184" x2="800" y2="184" stroke="#474b3c" stroke-width="1" />
    <line x1="0" y1="188" x2="800" y2="188" stroke="#474b3c" stroke-width="1" />
    <line x1="0" y1="192" x2="800" y2="192" stroke="#474b3c" stroke-width="1" />
    <line x1="0" y1="196" x2="800" y2="196" stroke="#474b3c" stroke-width="1" />
  </g>

  <!-- Border -->
  <rect x="0" y="0" width="800" height="200" fill="none" stroke="#474b3c" stroke-width="4"/>
  <rect x="6" y="6" width="788" height="188" fill="none" stroke="#515548" stroke-width="2"/>

  <!-- Pokeball left (monochrome) -->
  <g transform="translate(90, 100)" opacity="0.12">
    <circle r="40" fill="none" stroke="#474b3c" stroke-width="3"/>
    <line x1="-40" y1="0" x2="40" y2="0" stroke="#474b3c" stroke-width="3"/>
    <circle r="10" fill="none" stroke="#474b3c" stroke-width="3"/>
    <circle r="4" fill="#474b3c"/>
  </g>

  <!-- Title -->
  <text x="400" y="88" text-anchor="middle" font-family="monospace, 'Courier New'" font-size="56" font-weight="bold" fill="#474b3c" letter-spacing="8">
    STATUSMON
  </text>

  <!-- Subtitle -->
  <text x="400" y="120" text-anchor="middle" font-family="monospace, 'Courier New'" font-size="14" fill="#515548" letter-spacing="2">
    TRAIN POKEMON IN CLAUDE CODE
  </text>

  <!-- Pixel art pokeball row -->
  <g transform="translate(280, 148)" fill="#515548">
    <rect x="0" y="0" width="6" height="6"/>
    <rect x="8" y="0" width="6" height="6"/>
    <rect x="16" y="0" width="6" height="6"/>
    <rect x="24" y="0" width="6" height="6" fill="#858b77"/>
    <rect x="32" y="0" width="6" height="6" fill="#858b77"/>
    <rect x="40" y="0" width="6" height="6" fill="#858b77"/>
  </g>
  <text x="400" y="156" text-anchor="middle" font-family="monospace" font-size="11" fill="#858b77" letter-spacing="4">
    ▓▓▓░░░
  </text>
  <g transform="translate(462, 148)" fill="#515548">
    <rect x="0" y="0" width="6" height="6" fill="#858b77"/>
    <rect x="8" y="0" width="6" height="6" fill="#858b77"/>
    <rect x="16" y="0" width="6" height="6" fill="#858b77"/>
    <rect x="24" y="0" width="6" height="6"/>
    <rect x="32" y="0" width="6" height="6"/>
    <rect x="40" y="0" width="6" height="6"/>
  </g>

  <!-- Pokeball right (monochrome) -->
  <g transform="translate(710, 100)" opacity="0.12">
    <circle r="40" fill="none" stroke="#474b3c" stroke-width="3"/>
    <line x1="-40" y1="0" x2="40" y2="0" stroke="#474b3c" stroke-width="3"/>
    <circle r="10" fill="none" stroke="#474b3c" stroke-width="3"/>
    <circle r="4" fill="#474b3c"/>
  </g>
</svg>
